<?xml version="1.0" standalone="no"?>
<!DOCTYPE svg PUBLIC "-//W3C//DTD SVG 20010904//EN"
 "http://www.w3.org/TR/2001/REC-SVG-20010904/DTD/svg10.dtd">
<svg version="1.0" xmlns="http://www.w3.org/2000/svg"
 width="1137.000000pt" height="1280.000000pt" viewBox="0 0 1137.000000 1280.000000"
 preserveAspectRatio="xMidYMid meet">
<metadata>
Created by potrace 1.15, written by Peter Selinger 2001-2017
</metadata>
<g transform="translate(0.000000,1280.000000) scale(0.100000,-0.100000)"
fill="#000000" stroke="none">
<path d="M8655 12669 c-297 -71 -787 -188 -1089 -260 l-549 -131 -87 41 c-323
150 -736 260 -1140 303 -148 15 -582 15 -730 0 -421 -45 -879 -170 -1182 -323
-32 -16 -66 -29 -77 -29 -16 0 -357 80 -1867 441 -161 38 -305 69 -321 69 -33
0 -73 -35 -73 -64 0 -10 68 -246 151 -525 83 -278 182 -609 219 -736 38 -126
130 -435 205 -685 l136 -455 -13 -100 c-19 -147 -16 -494 5 -630 17 -104 48
-251 62 -286 4 -10 -5 -20 -27 -31 -18 -9 -83 -53 -145 -98 l-112 -82 21 -29
c12 -16 25 -29 28 -29 4 0 61 38 126 85 65 46 123 83 127 82 5 -1 26 -50 48
-107 22 -58 71 -168 109 -244 39 -77 69 -140 68 -141 -2 -1 -28 -10 -58 -20
-109 -35 -280 -125 -280 -147 0 -4 11 -19 23 -34 l24 -28 29 21 c62 43 265
133 302 133 6 0 30 -28 54 -62 200 -295 524 -614 798 -786 19 -12 42 -26 50
-31 12 -9 5 -21 -41 -68 -173 -178 -418 -504 -592 -785 -573 -928 -991 -2155
-1182 -3468 -14 -96 -28 -186 -31 -200 l-5 -25 -232 -1 c-194 0 -253 -4 -358
-22 -530 -94 -915 -344 -1020 -663 -32 -99 -33 -254 0 -343 54 -151 185 -309
339 -410 206 -135 490 -232 795 -271 45 -6 48 -8 42 -28 -4 -12 -10 -89 -12
-170 -5 -129 -2 -161 17 -244 88 -383 409 -729 827 -893 235 -92 430 -125 693
-117 262 9 448 54 661 163 251 128 430 306 544 540 44 91 56 126 64 195 6 46
18 143 28 214 9 72 18 147 21 168 l4 37 1457 -2 1456 -3 6 -50 c3 -27 13 -108
23 -180 9 -71 21 -168 27 -214 12 -95 72 -237 149 -352 60 -88 219 -243 315
-307 456 -303 1104 -333 1615 -77 290 146 546 402 650 652 71 169 98 336 79
497 -6 56 -12 110 -13 120 -1 16 11 21 78 33 351 60 642 196 831 387 87 89
134 160 173 264 22 58 26 83 26 182 0 99 -4 124 -26 182 -39 104 -86 174 -173
263 -138 139 -309 238 -543 315 -218 71 -418 101 -679 102 l-172 0 -7 46 c-94
676 -253 1356 -466 1990 l-71 212 20 23 c11 12 109 125 219 252 336 388 807
918 1085 1221 127 138 167 175 206 191 156 67 359 16 518 -130 102 -94 122
-102 235 -102 85 0 100 3 140 27 62 36 94 73 126 142 35 77 42 169 20 255 -59
230 -250 407 -511 471 -354 88 -984 -135 -1440 -510 -55 -45 -156 -141 -225
-212 -69 -72 -177 -180 -240 -241 -63 -60 -206 -202 -318 -315 -112 -112 -205
-203 -207 -200 -2 2 -39 71 -83 153 -263 496 -579 948 -874 1251 l-69 71 94
67 c257 182 517 439 682 676 l55 78 93 -48 c51 -27 109 -56 130 -65 l38 -16
15 37 c8 20 14 37 12 38 -2 1 -56 28 -120 60 -65 32 -118 60 -118 63 0 2 24
47 53 101 44 82 94 186 151 317 l13 29 27 -47 c16 -26 36 -69 46 -95 24 -63
43 -202 35 -256 l-7 -43 37 -7 c20 -4 40 -4 44 -1 13 13 4 211 -12 272 -21 79
-69 177 -111 227 l-33 40 23 74 c24 77 54 217 76 357 19 122 16 484 -6 625
l-17 116 140 469 c77 259 206 691 286 960 80 270 175 587 211 706 35 118 64
223 64 233 0 25 -45 66 -72 65 -13 0 -266 -58 -563 -130z"/>
</g>
</svg>
